<svg width="1440" height="1242" viewBox="0 0 1440 1242" xmlns="http://www.w3.org/2000/svg"><title>middle-grid</title><defs><linearGradient x1="105.694%" y1="125.794%" x2="0%" y2="0%" id="a"><stop stop-color="#4264FB" offset="0%"/><stop stop-color="#EE4E8B" offset="100%"/></linearGradient><linearGradient x1="91.451%" y1="52.158%" x2="15.69%" y2="52.158%" id="b"><stop stop-color="#FFF" offset="0%"/><stop stop-color="#FFF" stop-opacity="0" offset="100%"/></linearGradient></defs><g opacity=".5" fill="none" fill-rule="evenodd"><g opacity=".703" transform="scale(-1 1) rotate(22 676.807 -10529.406)" stroke="url(#a)" stroke-width=".75"><g opacity=".706"><path d="M773.099 488.608c337.235 112.894 719.819 122.442 1068.8 69.81 298.38-45.003 607.55-193.215 913.661-143.07 167.965 27.515 301.003 130.116 423.77 241.474 119.448 108.346 242.38 233.924 409.982 256.771 346.736 47.268 490.846-370.755 778.433-475.175 196.435-71.328 401.403 12.365 574.793 102.167 76.71 39.731 154.464 63.718 241.66 60.876 122.638-3.993 210.475-67.549 306.111-136.772-116.107 73.538-216.884 37.514-328.21-27.063-93.226-54.075-181.497-85.181-290.275-79.165-140.712-4.117-281.164-6.513-421.63 4.802-119.502 9.625-237.85 28.43-356.483 45.172-209.825 29.614-415.686 37.613-626.49 12.808-209.96-24.701-417.616-54.207-629.362-59.448-217.49-5.382-435.463-1.205-653.013-.805-208.897.387-416.75 6.156-623.472 38.63-248.476 64.262-530.7 151.1-788.275 88.988z"/><path d="M1544.392 402.526c209.52-32.967 419.813-41.143 631.612-42.488 220.055-1.4 440.76-6.13 660.729 1.129 214.08 7.066 423.4 41.34 635.52 67.35 210.19 25.77 415.138 15.104 623.9-17.239 121.068-18.76 241.84-39.432 364.01-49.837 140.411-11.96 280.879-9.146 421.562-4.924"/><path d="M1528.651 407.8c210.563-32.978 421.486-43.832 634.388-46.229 220.632-2.48 442.153-7.747 662.682.893 214.698 8.408 424.056 45.486 636.53 73.64 213.954 28.347 421.599 16.524 633.84-19.131 124.119-20.85 247.854-43.736 373.334-55.002 141.145-12.673 282.408-9.267 423.847-4.827"/><path d="M1512.91 412.782c213.646-33.1 427.23-46.48 643.257-49.927 223.095-3.56 447.35-9.575 670.31 1 217.052 10.3 428.007 52.28 642.676 81.734 216.564 29.715 425.924 13.537 640.054-25.653 123.517-22.608 246.762-46.6 371.954-58.086 141.207-12.956 282.55-8.862 424.043-4.14"/><path d="M1497.17 415.605c216.864-32.975 433.255-48.999 652.5-53.547 225.54-4.678 452.533-11.493 677.895 1.075 216.335 12.064 425.988 57.704 639.766 88.628 219.171 31.705 430.152 12.964 646.301-29.681 122.699-24.21 245.154-49.489 369.785-61.688 144.542-14.143 289.232-9.206 434.098-4.017"/><path d="M1479.18 420.405c220.206-32.734 439.606-51.361 662.163-57.054 224.863-5.75 451.443-13.307 676.11.52 221.948 13.662 436 65.06 655.199 97.455 218.687 32.32 428.537 10.155 643.463-35.27 121.884-25.764 243.573-52.396 367.673-65.22 147.856-15.28 295.956-9.266 444.152-3.521"/><path d="M1463.44 425.353c223.71-32.287 446.268-53.549 672.264-60.449 227.255-6.936 456.605-15.472 683.617.418 221.27 15.486 433.928 70.6 652.287 104.463 221.346 34.327 432.743 9.187 649.593-39.765 124.273-28.051 248.422-56.57 375.377-69.621 147.933-15.203 296.195-7.917 444.406-1.68"/><path d="M1445.45 428.028c224.312-31.215 447.247-55.137 673.706-63.374 229.546-8.348 461.65-18.004 690.955-.796 223.88 16.803 437.966 76.479 658.648 112.181 224.188 36.273 436.754 8.08 655.646-44.446 126.666-30.396 253.263-60.817 383.14-73.92 148.01-14.933 296.399-6.252 444.602.522"/><path d="M1427.461 432.888c228.154-30.383 454.685-56.899 684.836-66.427 231.865-9.598 466.759-20.432 698.338-1.13 223.25 18.606 435.87 82.025 655.752 119.235 230.16 38.954 446.558 5.414 670.28-51.539 122.99-31.309 246.092-61.71 372.605-74.853 151.268-15.718 302.983-5.459 454.408 2.05"/><path d="M1409.472 437.236c232.116-29.486 462.483-58.425 696.43-69.31 234.165-10.896 471.843-22.965 705.68-1.517 225.62 20.698 439.569 89.793 661.83 127.814 226.445 38.735 439.371 2.922 658.594-55.96 125.075-33.595 250.297-66.388 379.418-80.1 154.488-16.406 309.52-4.321 464.102 3.972"/><path d="M1393.731 441.598c235.265-31.43 470.04-59.751 707.197-72.004 233.374-12.058 470.694-25.199 703.759-2.847 231.37 22.19 449.23 98.307 677.094 137.37 229.49 39.345 443.312-2.836 664.066-65.322 124.596-35.269 249.624-68.511 378.84-81.538 154.467-15.569 309.508-1.72 463.924 7.206"/><path d="M1375.742 446.232c237.304-29.825 473.738-60.469 712.663-74.197 236.713-13.602 478.1-28.35 714.492-3.961 228.989 23.627 443.597 102.163 668.745 143.447 233.605 42.836 449.623-1.924 673.528-68.57 127.5-37.95 255.64-73.274 388.522-85.972 155.134-14.825 310.798.892 465.729 10.499"/><path d="M1360.001 450.276c241.134-28.84 481.256-61.274 723.781-76.476 238.928-14.976 483.135-31.208 721.703-4.627 231.429 25.785 447.116 110.463 674.808 152.24 233.283 42.805 447.995-6.745 670.26-76.031 129.894-40.491 260.663-77.44 396.748-89.303 155.044-13.517 310.458 4.02 465.128 14.243"/><path d="M1342.012 454.49c242.022-27.493 482.978-61.159 726.108-77.922 240.947-16.612 487.936-34.627 728.6-7.028 234.244 26.858 450.96 116.77 681.092 160.48 239.71 45.528 457.393-11.097 684.367-84.846 126.377-41.06 253.944-77.39 386.883-88.745 158.13-13.51 316.428 6.297 474.055 17.338"/><path d="M1326.271 458.183c248.934-26.693 496.634-62.092 746.443-80.368 237.17-17.352 480.673-36.242 717.629-8.409 240.135 28.207 460.367 126.21 696.284 170.602 236.247 44.453 450.253-14.58 672.59-90.112 128.39-43.612 258.176-82.302 393.955-93.561 161.17-13.364 322.289 8.95 482.794 20.785"/><path d="M1308.282 462.135c249.97-25.12 498.586-61.355 749.1-81.267 242.182-19.252 491.625-40.294 733.615-10.108 239.665 29.897 457.98 132.404 693.332 177.949 242.845 46.993 459.45-19.596 686.484-99.566 128.125-45.134 257.99-83.442 394.174-93.164 160.933-11.486 321.389 12.85 481.478 25.188"/><path d="M1290.292 465.641c254.028-23.728 506.506-61.067 760.77-82.576 244.158-20.657 496.712-43.839 740.657-11.217 239.099 31.98 455.688 138.037 690.397 185.277 242.438 48.798 458.272-20.545 683.627-103.314 133.197-48.92 268.655-90.355 411.238-98.267 160.75-8.916 320.125 16.882 479.87 29.655"/><path d="M1274.552 468.933c259.291-22.294 516.804-60.78 776.01-83.954 241.512-21.59 491.548-45.86 733.017-13.6 246.431 32.928 467.17 148.94 709.137 196.239 243.864 47.665 458.317-28.627 683.152-114.077 133.439-50.71 269.742-92.124 413.355-98.134 161.137-6.74 320.134 20.873 480.142 34.034"/><path d="M1256.562 472.353c260.495-20.376 519.006-59.08 779.047-83.935 246.353-23.546 502.485-50.522 748.847-15.728 245.986 34.742 464.647 155.302 706.149 203.665 250.81 50.223 467.167-34.893 696.768-124.498 133.472-52.087 270.029-92.27 414.24-96.112 160.643-4.283 318.452 25.117 477.894 38.485"/><path d="M1240.822 475.397c264.681-18.569 527.126-57.9 791.007-84.438 248.302-24.971 507.457-54.27 755.793-17.132 245.516 36.719 462.182 161.25 703.172 211.07 250.605 51.807 465.877-36.187 693.806-128.62 132.307-53.656 267.976-95.512 411.774-99.703 166.78-4.858 329.987 28.474 495.395 42.479"/><path d="M1222.832 478.273c268.9-16.615 535.296-56.411 803.036-84.676 250.37-26.435 512.264-57.807 762.703-18.591 245.134 38.387 459.71 167.108 700.208 218.458 257.347 54.95 474.91-43.287 707.213-139.58 132.595-54.961 268.475-94.973 413.04-96.812 166.08-2.114 327.91 33.1 492.629 47.03"/><path d="M1207.092 481.11c270.2-14.356 537.69-53.765 806.368-83.663 249.16-27.725 510.355-61.33 760.016-23.961 252.107 37.734 469.204 175.004 715.566 228.701 260.92 56.872 478.514-47.573 712.353-147.373 137.113-58.522 276.87-97.691 426.986-96.704 163.728 1.079 322.801 37.824 485.301 51.384"/><path d="M1189.102 483.342c275.581-12.172 548.219-51.977 821.924-83.687 252.296-29.227 517.934-65.519 770.641-24.182 252.22 41.26 468.225 185.285 715.9 237.319 258.995 54.414 473.212-54.79 703.336-156.072 142.082-62.53 285.988-101.239 442.223-97.657 162.061 3.714 319.214 42.51 480.214 55.574"/><path d="M1173.362 487.84c279.82-9.775 556.5-49.574 834.1-83.041 251.365-30.305 516.238-68.336 768.276-27.429 255.71 41.505 471.674 192.035 722.092 246.27 265.95 57.597 481.955-63.415 716.509-167.885 144.6-64.403 289.302-98.966 448.258-92.848 159.426 6.13 313.923 47.168 472.553 59.491"/><path d="M1155.372 490.034c281.086-7.147 558.992-45.99 837.541-81.002 253.158-31.822 520.493-72.94 774.671-31.966 259.247 41.79 474.973 199.497 728.258 255.326 266.296 58.697 480.284-65.07 713.385-172.568 143.576-66.208 287.463-102.061 446.298-95.892 165.228 6.416 324.667 52.254 489.099 64.23"/><path d="M1139.632 491.676c286.437-4.483 569.583-43.297 853.162-80.164 256.186-33.31 528.14-77.513 785.271-32.336 125.683 22.08 244.394 67.225 360.147 119.83 119.896 54.483 238.56 116.798 368.448 144.112 267.96 56.355 479.733-76.672 712.255-185.487 146.04-68.345 291.542-100.783 453.214-91.999 163.463 8.885 321.099 57.175 484.152 68.037"/><path d="M1121.642 494.684c290.598-1.632 577.915-39.99 865.366-78.599 255.33-34.295 526.211-80.39 782.825-35.979 128.875 22.308 249.975 69.926 367.846 125.323 119.159 56.006 237.135 119.83 366.933 147.737 128.104 27.545 256.101 11.581 378.582-33.638 120.4-44.45 230.868-109.942 346.638-164.42 148.016-69.646 295.556-97.509 458.978-85.654 160.84 11.666 315.866 61.865 476.832 71.35"/><path d="M1105.902 496.931c291.724 1.37 580.415-35.517 868.775-75.505 257.205-35.668 530.242-84.984 789.165-41.022 132.062 22.425 255.618 72.704 375.514 130.928 118.485 57.54 235.685 122.649 365.418 151.348 275.136 60.86 486.868-88.665 721.982-203.106 154.679-75.29 309.066-102.08 480.506-86.402 158.365 14.483 310.845 66.326 469.968 74.242"/><path d="M1090.161 498.124c298.756 4.558 594.561-32.455 889.676-74.534 256.238-36.538 529.161-87.853 787.2-42.1 131.928 23.39 254.795 75.179 373.952 134.928 120.465 60.407 239.789 128.864 373.03 156.861 279.248 58.677 488.56-102.745 725.671-218 156.332-75.986 312.927-97.947 485.52-78.78 156.081 17.333 306.047 70.514 463.611 76.66"/><path d="M1074.42 499.068c300.91 7.842 599.333-27.754 896.452-71.258 259.292-37.966 535.938-93.06 797.26-45.56 135.58 24.642 260.67 80.111 382.209 143.285 117.405 61.029 234.401 129.15 365.251 156.831 284.436 60.175 493.385-112.768 733.399-229.875 154.533-75.397 309.934-94.429 480.281-73.88 158.67 19.14 310.456 75.902 471.175 80.205"/><path d="M1056.431 502.078c301.787 11.203 601.748-22.476 899.672-67.106 261.261-39.136 539.824-97.775 803.602-51.072 138.877 24.587 266.397 82.968 389.849 149.125 116.632 62.501 232.946 132.112 363.762 160.339 284.801 61.451 491.858-115.487 730.04-235.276 157.247-79.087 316.057-97.664 490.21-74.736 160.525 21.136 313.05 81.175 476.328 83.304"/><path d="M1040.69 502.152c308.616 14.95 615.859-18.514 920.44-65.28 260.298-39.967 538.653-100.794 801.59-52.321 138.779 25.587 265.563 85.548 388.217 153.27 115.87 63.976 226.293 130.459 362.274 163.833 135.98 33.373 259.47 9.928 388.908-50.179 129.439-60.106 232.806-138.42 353.802-198.652 158.205-78.754 320.824-92.45 494.592-65.65 158.734 24.478 308.668 84.815 471.18 84.466"/><path d="M1024.95 504.902c309.28 18.561 618.18-12.73 923.478-60.436 265.091-41.421 549.226-107.426 817.215-56.33 138.71 26.449 264.768 88.148 386.587 157.403 120.443 68.475 241.017 144.756 379.188 171.148 285.044 54.449 485.807-137.267 720.894-258.248 163.496-84.138 334.716-95.822 514.536-64.09 157.316 27.76 304.615 88.014 466.787 84.979"/><path d="M1011.458 504.98c312.864 22.473 626.31-7.442 935.214-56.63 266.847-42.494 554.114-112.518 824.04-59.045 138.734 27.483 263.87 90.685 384.956 161.528 119.616 69.98 239.472 147.81 377.686 174.68 292.64 56.897 492.854-150.385 733.47-272.169 164.322-83.165 338.976-89.642 517.975-53.812 156.278 31.28 300.973 90.728 463.216 84.795"/><path d="M995.717 504.777c317.557 26.646 636.721-2.196 950.357-53.077 264.477-42.905 547.962-114.189 816.039-63.475 139.746 26.44 265.707 90.58 386.679 163.073 119.341 71.52 238.284 151.82 376.465 181.414 301.697 64.61 503.211-159.156 750.19-282.824 165.605-82.924 343.497-84.665 522.29-45.255 156.467 34.486 299.107 93.44 462.642 84.348"/><path d="M979.976 506.724c317.831 30.588 638.75 4.243 952.934-47.186 269.43-44.102 558.526-121.163 831.818-67.827 139.672 27.26 264.992 93.156 385.069 167.14 121.095 74.603 242.148 158.672 384.212 186.84 298.45 59.179 495.066-165.592 737.347-290.595 164.715-84.982 342.958-86.94 521.66-46.645 163.203 36.804 308.721 100.171 480.011 87.21"/><path d="M964.236 505.93c321.03 34.943 646.642 10.262 964.253-42.426 271.144-44.983 563.496-126.487 838.722-70.791 139.725 28.274 264.153 95.66 383.456 171.191 122.809 77.747 245.984 165.521 391.943 192.316 301.708 55.394 495.62-183.433 740.554-306.72 164.667-82.885 348.206-79.216 524.214-35.103 164.01 41.105 307.042 100.92 480.387 84.96"/><path d="M950.744 507.442c322.897 39.297 652.075 16.697 971.912-36.766 272.55-45.554 564.762-130.532 841.825-75.886 145.711 28.74 273.953 101.527 396.977 181.817 116.207 75.842 233.248 159.914 371.678 188.682 308.929 64.208 502.735-185.521 751.384-312.55 169.801-86.749 360.346-78.846 540.79-28.879 162.836 45.091 307.182 104.425 480.6 80.8"/><path d="M935.003 506.188c325.769 43.928 659.777 23.152 982.863-31.381 274.135-46.272 569.885-135.975 848.79-79.013 145.803 29.778 273.109 104.123 395.324 186 120.596 80.791 242.467 170.265 388.797 195.731 307.467 53.506 496.791-207.644 745.177-330.489 169.824-83.988 364.727-69.997 542.248-16.37 161.898 48.912 309.563 108.933 482.765 75.76"/><path d="M921.51 507.244c327.393 48.544 664.833 29.991 990.107-25.082 275.566-46.66 571.256-139.956 851.99-84.29 145.708 28.89 272.551 103.647 393.626 186.601 119.029 81.551 238.986 173.514 383.726 202.256 314.75 62.499 503.909-210.421 755.973-336.638 168.806-84.528 364.186-69.496 540.276-14.628 167.45 52.178 320.712 117.86 500.223 74.265"/><path d="M908.019 505.56c329.958 53.45 672.25 36.856 1000.621-19.09 277.618-47.296 576.03-145.604 859.038-87.567 145.728 29.884 271.83 106.237 392.024 190.706 123.367 86.697 247.902 184.251 400.855 209.207 312.938 51.055 496.955-232.982 749.667-354.438 169.43-81.427 367.525-59.927 541.147-1.553 166.702 56.047 322.998 119.501 501.684 66.69"/><path d="M894.527 506.148c331.19 58.293 677.058 44.024 1007.378-12.178 279.107-47.488 577.418-149.516 862.358-93.006 151.98 30.14 281.582 112.334 405.284 201.758 116.836 84.465 235.503 178.076 380.792 205.414 320.538 60.316 503.895-236.381 760.447-360.89 174.189-84.536 379.148-57.415 555.842 6.462 165.387 59.79 324.692 118.721 501.217 57.099"/><path d="M881.035 504.166c332.481 62.74 681.414 51.388 1013.807-4.985 277.963-47.143 572.088-150.842 856.441-100.153 152.528 27.19 282.941 107.89 405.802 198.384 122.75 90.41 246.782 194.099 401.52 220.992 318.737 55.39 498.336-246.143 752.568-370.719 175.889-86.184 384.623-55.624 561.832 11.866C5039.6 523 5205.288 581.436 5381.818 508.78"/><path d="M867.543 504.241c331.523 67.405 681.859 58.956 1014.342 3.452 283.144-47.266 583.159-158.228 872.861-105.264 152.674 27.915 282.325 110.464 404.248 202.48 121.756 91.893 245.003 197.39 399.948 224.657 322.625 56.773 499.926-256.996 756.875-381.335 176.055-85.196 385.945-50.813 561.499 18.914 170.064 67.547 339.317 123.75 517.681 40.939"/><path d="M854.05 501.807C1189.37 575 1546.345 568.2 1883.456 511.48c281.792-47.411 578.524-160.042 867.226-109.259 155.927 27.43 287.123 112.921 410.2 208.04 122.869 94.964 247.306 203.877 405.922 229.466 324.123 52.29 497.255-273.66 756.886-395.079 179.057-83.738 391.73-41.685 566.943 31.887 169.842 71.315 341.344 118.013 516.78 27.636"/><path d="M840.559 501.465c333.93 78.008 692.297 74.111 1029.224 18.665 287.17-47.26 589.707-167.502 883.9-114.493 156.028 28.113 286.556 115.532 408.648 212.155 121.824 96.414 245.536 207.203 404.36 233.115 328.166 53.54 498.253-285.03 761.167-405.743 179.532-82.432 392.444-36.404 566.114 39.344 174.357 76.048 347.792 117.051 525.127 17.18"/><path d="M829.315 498.64c337.31 84.1 702.347 81.925 1043.713 25.435 285.801-47.299 585.187-169.163 878.34-118.586 159.454 27.51 291.372 117.844 414.599 217.725 122.804 99.54 247.907 213.805 410.384 237.784 329.54 48.637 494.873-302.199 761.145-419.324 179.887-79.127 392.098-28.346 563.388 49.415 178.38 80.977 353.5 113.042 531.461 5.004"/><path d="M815.823 497.905c335.551 89.074 701.69 89.782 1042.726 34.94 291.324-46.844 596.61-176.645 895.314-123.921 159.628 28.177 290.84 120.484 413.05 221.858 121.798 101.025 245.976 217.14 408.824 241.417 333.448 49.711 495.496-314.205 765.427-429.985 183.92-78.89 397.123-20.698 569.508 60.552 180.991 85.303 356.198 102.781 532.04-10.753"/><path d="M804.58 494.82c335.447 94.605 704.717 97.748 1047.083 43.76 293.195-46.233 598.63-180.188 899.342-129.634 163.091 27.418 295.724 122.795 419.023 227.4 120.315 102.073 243.07 219.504 405.426 244.56 339.963 52.463 497.893-329.288 774.846-441.919 184.883-75.188 395.718-12.026 566.217 70.816 72.31 35.133 144.515 65.617 225.797 70.829 118.049 7.567 216.07-30.282 312.433-95.583"/><path d="M793.337 493.65c336.28 100.57 710.001 105.862 1054.688 52.207 293.402-45.673 596.702-182.037 897.774-135.131 167.278 26.064 302.13 124.913 426.876 233.155 121.504 105.432 246.28 227.422 413.098 249.58 338.985 45.033 491.34-344.35 769.908-453.924 189.56-74.561 399.514-3.476 571.643 82.264 72.79 36.253 145.65 64.392 227.96 67.043 120.581 3.88 214.602-41.647 310.985-109.302"/><path d="M782.093 490.054c336.89 106.67 715.07 114.117 1061.983 60.91 296.01-45.4 601.89-187.437 905.629-139.097 167.598 26.673 301.616 127.554 425.324 237.316 120.549 106.961 244.275 230.552 411.542 253.185 342.884 46.397 491.21-357.569 774.129-464.653 190.997-72.293 398.844 2.952 569.95 90.505 75.674 38.72 151.733 66.12 237.823 66.065 122.202-.076 212.69-54.061 308.875-123.08M4251.08 501.161c-102.342 26.492-172.33-5.34-244.397-80.519M4211.825 529.757c-103.095 22.763-171.942-29.92-236.623-106.392M4173.863 562.49c-104.143 14.342-171.731-57.571-230.142-135.167M4136.94 596.905c-100.59 13.478-176.883-94.877-224.7-166.187M4100.803 631.775c-101.842-2.63-174.467-123.42-220.045-198.8M4065.21 667.747c-103.309-25.034-169.66-147.454-215.934-232.357M4029.91 703.72c-102.627-46.407-165.086-171.17-212.115-266.219M3992.418 737.443c-100.313-67.182-160.67-193.33-208.353-299.762M3956.992 771.167c-96.823-86.207-156.615-214.53-204.408-332.375M3921.157 802.643c-92.463-102.476-153.082-235.17-200.055-363.464M3884.693 829.622c-86.853-118.566-149.179-253.257-195.072-392.453M3847.379 856.6c-82.952-129.59-145.948-271.23-189.24-418.79M3806.77 876.835c-79.27-138.794-142.467-287.012-182.36-441.944M3767.263 894.821c-75.737-146.474-137.967-300.27-174.335-461.407M3723.938 908.31c-71.94-151.689-134.783-310.892-164.74-476.679M3680.89 915.056c-67.926-155.018-131.32-318.446-153.173-487.267M3635.745 917.304c-64.172-157.666-123.688-322.05-139.51-492.692M3588.384 912.807c-61.025-157.144-113.862-323.094-123.63-492.514M3538.27 903.814c-53.042-155.662-101.437-320.709-104.997-486.398M3490.962 888.076c-46.422-152.328-91.204-314.092-89.1-474.757M3444.65 867.842c-41.277-146.748-83.19-304.344-75.717-458.334M3403.44 843.111c-37.553-139.73-77.089-291.693-64.46-437.854M3362.218 813.884c-34.816-131.532-72.42-276.666-54.942-414.014M3322.705 784.657c-32.898-122.517-68.852-259.827-46.797-387.491M3282.666 750.933c-31.19-111.552-67.326-242.695-39.67-358.938M3245.156 717.21c-29.984-100.792-64.917-224.03-33.218-328.977M3208.16 683.485c-29.141-90.53-62.72-204.375-27.122-298.208M3169.078 649.761c-28.358-80.507-60.37-184.467-21.068-267.2M3131.607 613.79c-28.129-72.595-55.976-162.85-14.763-236.497M3092.828 582.314c-29.82-70.137-46.903-137.058-7.931-206.613M3052.297 550.838c-26.275-55.655-47.519-126.037-.312-178.04M3010.815 521.61c-27.94-55.533-35.583-102.207 8.349-151.241M2970.058 494.632c-26.73-52.436-26.093-87.156 18.282-126.651M2924.731 469.901c-24.616-48.605-14.645-75.595 29.707-104.68M2880.993 449.667c-19.282-48.266-.99-63.615 42.833-85.715M2832.254 433.929c-23.968-43.472 28.158-59.934 57.852-70.12M2782.769 420.44c-12.04-44.869 46.484-52.057 74.946-58.244M2729.44 411.446c2.858-46.269 61.555-46.433 94.289-50.41"/><path d="M4874.392 503.625c-77.585-82.653-170.51-124.446-282.488-139.037-66.397-8.651-129.99 3.719-196.201 2.826"/><path d="M4833.16 483.39c-82.732-72.955-179.133-107.578-288.701-117.419-61.06-5.481-121.496 9.391-182.486 5.292"/><path d="M4787.81 465.405c-83.93-59.152-183.05-91.354-286.18-93.977-57.927-1.473-115.511 12.52-173.387 5.193"/><path d="M4737.07 447.419c-84.635-45.397-180.482-72.61-277.246-69.993-55.217 1.493-110.275 13.492-165.311 2.826"/><path d="M4679.698 431.68c-83.322-32.311-171.445-53.416-261.21-47.046-52.886 3.752-105.381 12.9-157.705-1.205"/><path d="M4616.706 422.688c-81.06-21.06-153.368-33.466-236.242-25.786-51.25 4.753-101.57 10.315-151.163-7.237"/><path d="M4542.4 415.943c-71.46-13.062-130.08-15.088-201.799-7.527-48.81 5.146-99.487 6.477-145.03-14.908M4475.416 414.87c-106.682-12.613-209.87 29.965-311.326-17.514M4425.995 421.933c-105.37 1.41-195.715 35.99-293.386-19.137M4379.09 434.742c-104.39 12.716-184.933 35.999-277.963-26.874M4334.465 450.785c-102.605 21.102-178.05 28.022-264.82-40.111M4291.875 473.09c-102.15 25.79-174.01 14.384-253.71-58.21"/></g><g opacity=".706"><path d="M0 428.696c337.235-112.894 719.819-122.442 1068.8-69.81 298.381 45.003 607.55 193.214 913.662 143.07 167.964-27.515 301.002-130.116 423.77-241.475 119.447-108.345 242.38-233.924 409.982-256.77 346.735-47.268 490.846 370.755 778.432 475.175 196.435 71.328 401.403-12.366 574.794-102.168 76.708-39.73 154.463-63.717 241.66-60.876 122.637 3.993 210.475 67.55 306.11 136.773-116.107-73.538-216.883-37.514-328.21 27.062-93.226 54.075-181.497 85.182-290.274 79.166-140.713 4.116-281.165 6.513-421.63-4.802-119.503-9.625-237.85-28.43-356.484-45.172-209.825-29.614-415.686-37.614-626.49-12.809-209.96 24.702-417.616 54.208-629.361 59.449-217.492 5.382-435.464 1.205-653.014.805-208.896-.387-416.75-6.156-623.472-38.63-248.476-64.262-530.7-151.1-788.275-88.988z"/><path d="M771.293 514.778c209.52 32.966 419.813 41.143 631.613 42.488 220.054 1.4 440.759 6.13 660.728-1.129 214.08-7.066 423.4-41.34 635.52-67.35 210.19-25.77 415.139-15.105 623.9 17.239 121.069 18.76 241.84 39.432 364.01 49.837 140.412 11.96 280.88 9.146 421.563 4.923"/><path d="M755.552 509.504c210.563 32.977 421.486 43.832 634.388 46.229 220.632 2.48 442.153 7.747 662.682-.893 214.699-8.409 424.056-45.487 636.53-73.64 213.955-28.348 421.599-16.524 633.84 19.131 124.12 20.85 247.854 43.735 373.335 55.001 141.144 12.674 282.407 9.268 423.846 4.827"/><path d="M739.812 504.521c213.646 33.101 427.229 46.48 643.256 49.927 223.095 3.562 447.35 9.576 670.31-1 217.052-10.3 428.007-52.279 642.676-81.733 216.565-29.715 425.925-13.537 640.054 25.652 123.517 22.609 246.762 46.6 371.954 58.086 141.208 12.957 282.55 8.863 424.043 4.142"/><path d="M724.071 501.699c216.864 32.975 433.255 48.998 652.5 53.546 225.54 4.68 452.534 11.494 677.895-1.074 216.336-12.064 425.988-57.704 639.766-88.629 219.171-31.705 430.153-12.963 646.301 29.682 122.699 24.209 245.155 49.488 369.785 61.687 144.542 14.144 289.232 9.207 434.098 4.018"/><path d="M706.082 496.899c220.205 32.734 439.605 51.36 662.163 57.053 224.862 5.752 451.442 13.308 676.109-.519 221.948-13.663 436-65.06 655.199-97.455 218.687-32.32 428.537-10.155 643.463 35.27 121.884 25.763 243.573 52.396 367.673 65.22 147.856 15.28 295.956 9.265 444.152 3.521"/><path d="M690.341 491.95c223.711 32.288 446.268 53.55 672.264 60.45 227.255 6.936 456.606 15.472 683.618-.419 221.268-15.485 433.927-70.6 652.286-104.462 221.346-34.327 432.743-9.187 649.593 39.764 124.273 28.052 248.422 56.571 375.377 69.622 147.933 15.203 296.195 7.916 444.407 1.68"/><path d="M672.352 489.276c224.311 31.215 447.246 55.136 673.705 63.374 229.546 8.348 461.65 18.004 690.955.796 223.88-16.804 437.966-76.48 658.648-112.181 224.188-36.274 436.755-8.08 655.647 44.445 126.665 30.397 253.263 60.818 383.139 73.92 148.01 14.934 296.4 6.253 444.602-.52"/><path d="M654.362 484.416c228.155 30.383 454.685 56.899 684.837 66.427 231.864 9.597 466.758 20.432 698.337 1.13 223.25-18.606 435.87-82.025 655.752-119.236 230.16-38.953 446.558-5.413 670.28 51.54 122.99 31.309 246.093 61.71 372.605 74.853 151.268 15.717 302.983 5.459 454.409-2.05"/><path d="M636.373 480.068c232.117 29.486 462.484 58.425 696.43 69.309 234.165 10.897 471.843 22.966 705.68 1.518 225.62-20.698 439.57-89.794 661.83-127.814 226.445-38.735 439.372-2.923 658.594 55.96 125.076 33.595 250.297 66.388 379.418 80.1 154.488 16.406 309.52 4.321 464.102-3.973"/><path d="M620.632 475.705c235.265 31.431 470.04 59.752 707.197 72.005 233.374 12.058 470.694 25.199 703.76 2.847 231.37-22.19 449.23-98.308 677.093-137.371 229.49-39.345 443.312 2.837 664.066 65.323 124.596 35.268 249.624 68.511 378.84 81.537 154.467 15.57 309.508 1.72 463.924-7.205"/><path d="M602.643 471.072c237.304 29.825 473.738 60.469 712.664 74.197 236.712 13.602 478.1 28.35 714.491 3.961 228.989-23.627 443.597-102.163 668.745-143.448 233.605-42.836 449.624 1.925 673.528 68.57 127.5 37.95 255.64 73.275 388.522 85.973 155.134 14.825 310.798-.892 465.729-10.5"/><path d="M586.902 467.028c241.134 28.84 481.256 61.273 723.781 76.476 238.928 14.976 483.136 31.208 721.704 4.627 231.428-25.785 447.116-110.463 674.807-152.24 233.283-42.805 447.995 6.744 670.26 76.031 129.894 40.491 260.664 77.439 396.748 89.303 155.044 13.516 310.458-4.02 465.128-14.243"/><path d="M568.913 462.813c242.022 27.494 482.978 61.16 726.108 77.922 240.947 16.613 487.937 34.628 728.6 7.028 234.244-26.857 450.96-116.77 681.092-160.48 239.71-45.527 457.393 11.097 684.367 84.847 126.377 41.06 253.944 77.39 386.883 88.745 158.13 13.51 316.428-6.297 474.055-17.338"/><path d="M553.172 459.12c248.935 26.694 496.634 62.093 746.443 80.37 237.17 17.351 480.673 36.24 717.629 8.408 240.135-28.207 460.368-126.21 696.284-170.603 236.248-44.452 450.253 14.58 672.59 90.113 128.39 43.611 258.177 82.302 393.956 93.56 161.168 13.365 322.288-8.95 482.793-20.784"/><path d="M535.183 455.168c249.97 25.12 498.586 61.355 749.1 81.268 242.182 19.252 491.625 40.293 733.615 10.108 239.666-29.897 457.98-132.404 693.332-177.95 242.845-46.992 459.45 19.597 686.485 99.567 128.124 45.134 257.99 83.442 394.173 93.163 160.933 11.487 321.389-12.848 481.478-25.187"/><path d="M517.194 451.663c254.027 23.728 506.505 61.067 760.769 82.576 244.158 20.657 496.713 43.838 740.657 11.216 239.099-31.979 455.688-138.036 690.397-185.276 242.438-48.798 458.272 20.544 683.627 103.314 133.198 48.92 268.655 90.355 411.239 98.267 160.75 8.916 320.124-16.882 479.87-29.655"/><path d="M501.453 448.37c259.292 22.295 516.805 60.78 776.01 83.955 241.512 21.59 491.548 45.86 733.017 13.6 246.432-32.928 467.17-148.94 709.138-196.239 243.863-47.665 458.316 28.627 683.152 114.076 133.438 50.71 269.74 92.125 413.354 98.134 161.138 6.74 320.134-20.872 480.143-34.034"/><path d="M483.464 444.951c260.494 20.376 519.006 59.08 779.046 83.934 246.353 23.546 502.485 50.523 748.847 15.73 245.986-34.743 464.647-155.304 706.15-203.666 250.809-50.224 467.167 34.893 696.767 124.497 133.472 52.088 270.029 92.27 414.24 96.113 160.643 4.283 318.452-25.117 477.894-38.485"/><path d="M467.723 441.907c264.682 18.568 527.126 57.9 791.007 84.438 248.302 24.971 507.457 54.27 755.793 17.132 245.516-36.719 462.182-161.25 703.172-211.071 250.605-51.807 465.877 36.188 693.806 128.62 132.307 53.657 267.976 95.513 411.774 99.704 166.78 4.858 329.988-28.474 495.395-42.479"/><path d="M449.734 439.03c268.9 16.616 535.295 56.412 803.035 84.677 250.371 26.435 512.264 57.807 762.703 18.59 245.134-38.386 459.71-167.108 700.208-218.458 257.347-54.95 474.91 43.288 707.213 139.581 132.595 54.96 268.475 94.973 413.04 96.812 166.08 2.113 327.91-33.101 492.629-47.031"/><path d="M433.993 436.194c270.2 14.355 537.69 53.765 806.368 83.662 249.161 27.726 510.355 61.33 760.016 23.962 252.107-37.735 469.205-175.004 715.566-228.701 260.92-56.872 478.515 47.573 712.354 147.373 137.112 58.522 276.87 97.691 426.986 96.704 163.727-1.08 322.8-37.825 485.3-51.384"/><path d="M416.004 433.962c275.58 12.172 548.218 51.977 821.924 83.687 252.296 29.227 517.933 65.518 770.64 24.182 252.22-41.26 468.225-185.286 715.9-237.32 258.995-54.414 473.212 54.79 703.336 156.072 142.082 62.531 285.988 101.24 442.223 97.658 162.062-3.714 319.214-42.51 480.214-55.575"/><path d="M400.263 429.464c279.82 9.775 556.5 49.574 834.1 83.041 251.366 30.304 516.238 68.336 768.276 27.429 255.71-41.505 471.674-192.035 722.092-246.27 265.95-57.598 481.955 63.415 716.509 167.884 144.6 64.404 289.302 98.966 448.258 92.849 159.426-6.131 313.923-47.169 472.553-59.491"/><path d="M382.274 427.27c281.085 7.147 558.991 45.99 837.54 81.002 253.158 31.822 520.493 72.94 774.671 31.966 259.247-41.791 474.973-199.497 728.258-255.326 266.297-58.697 480.284 65.07 713.386 172.567 143.575 66.21 287.463 102.062 446.297 95.893 165.228-6.417 324.667-52.254 489.1-64.23"/><path d="M366.533 425.628c286.437 4.483 569.583 43.297 853.162 80.164 256.187 33.31 528.14 77.513 785.271 32.336 125.683-22.08 244.394-67.225 360.147-119.83 119.897-54.484 238.561-116.799 368.449-144.113 267.96-56.354 479.733 76.673 712.254 185.488 146.04 68.345 291.542 100.783 453.214 91.999 163.463-8.885 321.099-57.176 484.152-68.037"/><path d="M348.544 422.62c290.597 1.632 577.914 39.99 865.366 78.599 255.33 34.294 526.21 80.39 782.824 35.978 128.876-22.307 249.975-69.925 367.846-125.322 119.16-56.006 237.135-119.83 366.933-147.737 128.104-27.546 254.001-10.644 376.482 34.575 120.4 44.45 232.968 109.005 348.738 163.483 148.017 69.646 295.556 97.509 458.978 85.654 160.84-11.667 315.866-61.866 476.832-71.351"/><path d="M332.803 420.372c291.724-1.369 580.415 35.518 868.775 75.506 257.205 35.668 530.243 84.984 789.165 41.021 132.062-22.424 255.618-72.704 375.514-130.927 118.485-57.54 235.686-122.649 365.418-151.348 275.136-60.86 486.868 88.665 721.982 203.105 154.68 75.29 309.066 102.08 480.507 86.403 158.364-14.483 310.844-66.326 469.967-74.242"/><path d="M317.062 419.18c298.756-4.558 594.561 32.455 889.677 74.534 256.238 36.538 529.16 87.852 787.2 42.1 131.927-23.39 254.794-75.179 373.951-134.929 120.466-60.406 239.789-128.863 373.03-156.86 279.248-58.678 488.56 102.745 725.671 218 156.332 75.986 312.927 97.947 485.52 78.78 156.082-17.334 306.047-70.514 463.612-76.66"/><path d="M301.321 418.235c300.91-7.842 599.333 27.755 896.452 71.259 259.292 37.966 535.939 93.06 797.26 45.56 135.58-24.642 260.671-80.111 382.21-143.285 117.404-61.029 234.4-129.151 365.25-156.832 284.437-60.174 493.385 112.768 733.399 229.875 154.533 75.398 309.934 94.43 480.282 73.88 158.67-19.14 310.455-75.9 471.174-80.204"/><path d="M283.332 415.226c301.787-11.203 601.748 22.476 899.672 67.106 261.261 39.135 539.824 97.774 803.602 51.071 138.878-24.586 266.397-82.967 389.85-149.124 116.63-62.502 232.945-132.112 363.762-160.339 95.786-20.668 184.823-9.318 261.241 9.3 150.796 36.74 275.665 126.338 468.798 225.976 153.397 79.137 316.057 97.664 490.21 74.736 160.525-21.136 313.05-81.175 476.328-83.305"/><path d="M267.591 415.151c308.617-14.948 615.859 18.515 920.441 65.28 260.297 39.968 538.653 100.794 801.59 52.322 138.778-25.587 265.563-85.548 388.216-153.27 115.87-63.977 231.451-135.057 362.274-163.833 134.122-29.504 265.35-4.299 388.913 53.079 122.72 56.989 232.8 135.52 353.797 195.751 158.205 78.754 320.824 92.45 494.593 65.652 158.733-24.48 308.667-84.816 471.179-84.467"/><path d="M251.85 412.402c309.28-18.562 618.182 12.73 923.48 60.435 265.09 41.422 549.225 107.426 817.215 56.33 138.709-26.448 264.767-88.147 386.586-157.402 120.443-68.475 241.017-144.756 379.188-171.149 285.044-54.448 485.807 137.268 720.894 258.248 163.496 84.14 334.717 95.823 514.536 64.091 157.317-27.761 304.616-88.014 466.787-84.98"/><path d="M238.359 412.324c312.864-22.474 626.31 7.442 935.214 56.629 266.847 42.494 554.115 112.518 824.04 59.046 138.734-27.483 263.87-90.686 384.956-161.528 119.616-69.98 239.472-147.81 377.687-174.68 292.639-56.897 492.854 150.385 733.47 272.169 164.321 83.165 338.976 89.642 517.974 53.812 156.278-31.28 300.973-90.729 463.217-84.796"/><path d="M222.618 412.527c317.557-26.647 636.722 2.196 950.357 53.076 264.477 42.906 547.962 114.19 816.04 63.475 139.745-26.44 265.706-90.58 386.678-163.072 119.341-71.52 238.284-151.82 376.465-181.414 301.697-64.61 503.212 159.156 750.19 282.824 165.605 82.924 343.497 84.664 522.29 45.255 156.468-34.486 299.107-93.44 462.642-84.348"/><path d="M206.877 410.58c317.832-30.588 638.75-4.243 952.934 47.186 269.431 44.101 558.527 121.163 831.818 67.827 139.672-27.26 264.992-93.156 385.069-167.14 121.095-74.603 242.148-158.672 384.212-186.84 298.45-59.18 495.067 165.592 737.347 290.595 164.715 84.982 342.958 86.94 521.66 46.645 163.203-36.804 308.721-100.171 480.011-87.21"/><path d="M191.137 411.373c321.03-34.942 646.642-10.26 964.253 42.427 271.145 44.983 563.496 126.487 838.722 70.79 139.725-28.273 264.153-95.66 383.456-171.19 122.809-77.747 245.984-165.521 391.943-192.316 301.708-55.395 495.62 183.433 740.554 306.72 164.668 82.885 348.206 79.215 524.214 35.102 164.01-41.104 307.042-100.92 480.387-84.959"/><path d="M177.645 409.862c322.897-39.297 652.075-16.698 971.912 36.766 272.55 45.554 564.762 130.531 841.825 75.885 145.711-28.74 273.953-101.526 396.978-181.816 116.206-75.843 233.247-159.914 371.677-188.683 308.93-64.207 502.735 185.522 751.384 312.55 169.801 86.75 360.347 78.847 540.791 28.88 162.835-45.092 307.181-104.425 480.599-80.8"/><path d="M161.904 411.116c325.77-43.929 659.777-23.153 982.864 31.381 274.135 46.271 569.884 135.974 848.789 79.013 145.803-29.778 273.11-104.124 395.324-186 120.596-80.792 242.467-170.265 388.797-195.731 307.467-53.507 496.792 207.644 745.177 330.488 169.824 83.989 364.727 69.998 542.249 16.37 161.897-48.91 309.562-108.932 482.764-75.76"/><path d="M148.412 410.06c327.393-48.544 664.832-29.991 990.107 25.082 275.565 46.66 571.256 139.956 851.988 84.29 145.71-28.891 272.552-103.648 393.627-186.602 119.03-81.55 238.987-173.513 383.727-202.255 314.75-62.499 503.908 210.421 755.972 336.638 168.806 84.528 364.186 69.496 540.277 14.627 167.449-52.177 320.711-117.86 500.223-74.264"/><path d="M134.92 411.744c329.958-53.45 672.25-36.856 1000.621 19.09 277.619 47.296 576.03 145.603 859.039 87.567 145.727-29.884 271.83-106.237 392.023-190.706 123.367-86.697 247.903-184.251 400.855-209.207 312.938-51.056 496.955 232.982 749.667 354.437 169.43 81.428 367.525 59.928 541.147 1.554 166.703-56.047 322.998-119.501 501.684-66.69"/><path d="M121.428 411.155c331.19-58.292 677.058-44.023 1007.379 12.18 279.106 47.487 577.417 149.515 862.357 93.005 151.98-30.14 281.583-112.334 405.284-201.758 116.836-84.465 235.503-178.076 380.792-205.415 320.538-60.316 503.895 236.382 760.448 360.89 174.188 84.537 379.147 57.416 555.841-6.461 165.387-59.79 324.692-118.722 501.217-57.1"/><path d="M107.936 413.138c332.481-62.74 681.414-51.388 1013.807 4.984 277.963 47.144 572.089 150.843 856.442 100.153 152.527-27.19 282.94-107.889 405.801-198.383 122.75-90.41 246.782-194.099 401.52-220.993 318.737-55.39 498.336 246.144 752.568 370.72 175.889 86.184 384.624 55.624 561.832-11.867 166.595-63.448 332.284-121.884 508.813-49.227"/><path d="M94.444 413.062c331.523-67.405 681.86-58.956 1014.343-3.45 283.143 47.264 583.158 158.227 872.86 105.263 152.674-27.915 282.325-110.464 404.248-202.48 121.756-91.893 245.004-197.39 399.948-224.657 322.626-56.773 499.926 256.995 756.875 381.335 176.055 85.195 385.945 50.813 561.499-18.914 170.064-67.547 339.317-123.751 517.681-40.939"/><path d="M80.952 415.497c335.32-73.194 692.293-66.393 1029.404-9.674 281.792 47.411 578.524 160.042 867.226 109.258 155.927-27.428 287.123-112.92 410.2-208.04 122.87-94.964 247.306-203.876 405.923-229.466 324.122-52.29 497.254 273.66 756.885 395.08 179.057 83.738 391.73 41.684 566.944-31.887 169.841-71.315 341.343-118.014 516.78-27.636"/><path d="M67.46 415.839c333.93-78.008 692.297-74.112 1029.224-18.665 287.17 47.26 589.707 167.502 883.9 114.492 156.028-28.112 286.557-115.53 408.648-212.154 121.824-96.414 245.537-207.204 404.36-233.115 328.166-53.54 498.253 285.03 761.167 405.743 179.532 82.432 392.445 36.403 566.114-39.345 174.357-76.047 347.792-117.05 525.127-17.179"/><path d="M56.217 418.663c337.309-84.1 702.346-81.924 1043.712-25.434 285.801 47.299 585.187 169.163 878.341 118.586 159.453-27.51 291.371-117.844 414.598-217.725 122.804-99.54 247.907-213.805 410.384-237.785 329.54-48.636 494.874 302.2 761.145 419.325 179.887 79.127 392.098 28.346 563.388-49.415 178.38-80.977 353.5-113.042 531.462-5.004"/><path d="M42.725 419.398c335.55-89.073 701.69-89.781 1042.725-34.94 291.324 46.845 596.61 176.646 895.314 123.922 159.628-28.178 290.84-120.484 413.05-221.858 121.798-101.025 245.976-217.14 408.824-241.417 333.449-49.712 495.497 314.204 765.427 429.985 183.92 78.889 397.124 20.697 569.509-60.552 180.99-85.304 356.198-102.781 532.039 10.753"/><path d="M31.481 422.483c335.448-94.604 704.717-97.747 1047.084-43.76 293.194 46.233 598.629 180.189 899.34 129.635 163.092-27.418 295.725-122.795 419.024-227.4C2517.244 178.885 2640 61.454 2802.355 36.398c339.963-52.464 497.893 329.288 774.846 441.919 184.883 75.188 395.718 12.025 566.217-70.816 72.31-35.133 144.515-65.618 225.798-70.829 118.048-7.568 216.07 30.282 312.432 95.582"/><path d="M20.238 423.653c336.28-100.568 710.001-105.86 1054.688-52.206 293.402 45.673 596.702 182.036 897.774 135.131 167.279-26.064 302.131-124.913 426.876-233.155C2521.081 167.99 2645.856 46 2812.674 23.842c338.985-45.033 491.341 344.352 769.908 453.925 189.56 74.56 399.514 3.476 571.643-82.264 72.79-36.253 145.65-64.392 227.961-67.043 120.58-3.88 214.602 41.647 310.984 109.301"/><path d="M8.995 427.25c336.888-106.671 715.07-114.117 1061.983-60.91 296.01 45.399 601.89 187.437 905.628 139.097 167.598-26.673 301.616-127.554 425.324-237.317 120.55-106.96 244.275-230.551 411.543-253.184 342.883-46.398 491.21 357.569 774.128 464.653 190.998 72.293 398.844-2.952 569.95-90.506 75.674-38.72 151.733-66.119 237.823-66.065 122.202.077 212.69 54.062 308.875 123.081M3477.98 416.142c-102.34-26.49-172.328 5.34-244.396 80.52M3438.726 387.547c-103.095-22.763-171.942 29.92-236.623 106.392M3400.764 354.814c-104.143-14.342-171.73 57.57-230.142 135.167M3363.84 320.399c-100.589-13.478-176.882 94.876-224.7 166.186M3327.705 285.528c-101.842 2.63-174.468 123.42-220.046 198.8M3292.11 249.556c-103.308 25.035-169.66 147.454-215.932 232.357M3256.81 213.584c-102.626 46.406-165.085 171.169-212.114 266.218M3219.319 179.86c-100.313 67.183-160.67 193.33-208.353 299.762M3183.893 146.137c-96.823 86.207-156.615 214.53-204.408 332.375M3148.059 114.661c-92.463 102.475-153.083 235.17-200.055 363.464M3111.594 87.682c-86.852 118.566-149.179 253.257-195.072 392.453M3074.28 60.703c-82.951 129.592-145.948 271.232-189.24 418.791M3033.671 40.469c-79.27 138.793-142.466 287.012-182.36 441.944M2994.164 22.483c-75.737 146.473-137.967 300.27-174.334 461.407M2950.84 8.993c-71.94 151.69-134.784 310.893-164.74 476.68M2907.79 2.248c-67.925 155.017-131.32 318.445-153.172 487.267M2862.646 0c-64.172 157.666-123.688 322.049-139.51 492.692M2815.285 4.497c-61.024 157.144-113.861 323.094-123.63 492.513M2765.171 13.49c-53.041 155.662-101.437 320.709-104.997 486.398M2717.863 29.227c-46.421 152.329-91.204 314.093-89.099 474.758M2671.55 49.462c-41.276 146.748-83.189 304.344-75.716 458.333"/><path d="M4668.356 418.833c-119.773-61.941-219.526 1.028-322.149 65.308-90.259 56.537-180.703 83.545-287.361 76.942"/><path d="M4620.952 384.23c-126.06-40.418-215.416 38.596-314.665 103.492-88.128 57.623-181.03 80.571-285.669 73.289"/><path d="M4568.758 354.138c-129.86-12.107-203.743 72.86-303.617 138.837-86.884 57.4-182.226 76.355-284.999 68.331"/><path d="M4514.432 332.742c-123.573 15.803-187.754 104.97-286.667 168.632-83.5 53.743-185.225 74.676-283.602 62.007"/><path d="M4449.172 319.252c-105.497 38.906-167.8 132.186-261.703 189.474-83.106 50.705-185.472 68.25-281.533 54.871"/><path d="M4390.187 314.756c-88.182 57.834-149.564 147.54-241.842 199.892-84.053 47.688-183.561 59.311-278.388 47.276"/><path d="M4338.818 319.252c-77.92 69.161-138.223 156.328-233.052 204.618-84.437 42.996-181.245 50.573-274.036 38.936"/><path d="M4294.002 325.997c-69.753 77.124-132.172 161.497-230.218 204.422-84.665 37.067-177.571 40.973-268.033 30.11"/><path d="M4252.397 339.486c-65.175 82.637-131.457 161.56-233.076 199.11-84.314 31.154-171.61 31.163-259.548 21.737"/><path d="M4215.103 355.224c-63.82 85.893-135.842 157.85-240.778 189.436-82.888 24.944-163.588 21.3-248.282 13.86"/><path d="M4176.433 373.21c-65.583 87.064-144.837 150.64-252.6 175.895-79.657 18.67-153.57 11.772-233.769 6.841"/><path d="M4139.663 393.445c-71.137 86.843-156.892 138.782-267.882 158.677-73.855 13.24-141.751 3.478-215.447 1.387"/><path d="M4101.294 413.679c-77.586 82.652-170.51 124.445-282.49 139.036-66.396 8.652-129.988-3.718-196.2-2.826"/><path d="M4060.062 433.913c-82.733 72.956-179.133 107.58-288.702 117.42-61.06 5.481-121.495-9.391-182.486-5.293"/><path d="M4014.71 451.9c-83.928 59.15-183.05 91.353-286.178 93.976-57.928 1.473-115.512-12.52-173.388-5.193"/><path d="M3963.972 469.885c-84.635 45.397-180.483 72.61-277.247 69.993-55.216-1.493-110.275-13.492-165.311-2.826"/><path d="M3906.6 485.623c-83.323 32.312-171.446 53.416-261.21 47.047-52.887-3.752-105.382-12.9-157.706 1.205"/><path d="M3843.608 494.616c-81.06 21.06-153.369 33.465-236.243 25.785-51.25-4.753-101.57-10.315-151.162 7.237"/><path d="M3769.3 501.36c-71.458 13.063-130.078 15.089-201.797 7.528-48.81-5.146-99.488-6.477-145.03 14.908M3702.317 502.434c-106.681 12.612-209.87-29.965-311.326 17.514M3652.896 495.37c-105.37-1.409-195.715-35.99-293.386 19.138M3605.99 482.562c-104.39-12.716-184.932-35.999-277.962 26.874M3561.366 466.519c-102.604-21.103-178.05-28.023-264.819 40.11M3518.776 444.214c-102.15-25.79-174.01-14.384-253.71 58.21"/></g></g><path fill="url(#b)" d="M2467 712h170v973h-170z" transform="translate(-1197 -1021)"/><path fill="url(#b)" transform="matrix(-1 0 0 1 1367 -1021)" d="M1197 1685h170v582h-170z"/><path fill="url(#b)" d="M1270 756h170v474h-170z"/></g></svg>