<?xml version="1.0" encoding="utf-8"?>
<!-- Generator: Adobe Illustrator 19.0.1, SVG Export Plug-In . SVG Version: 6.00 Build 0)  -->
<svg version="1.1" id="Layer_1" xmlns="http://www.w3.org/2000/svg" xmlns:xlink="http://www.w3.org/1999/xlink" x="0px" y="0px"
	 viewBox="-372 0 279 40" style="enable-background:new -372 0 279 40;" xml:space="preserve">
<style type="text/css">
	.st0{fill:#8A8ACB;}
</style>
<g>
	<path class="st0" d="M-350.1,5h-10.6c-1.8,0-3.3,1.4-3.3,3.1v24.8c0,1.7,1.5,3.1,3.3,3.1h17.4c1.8,0,3.3-1.4,3.3-3.1V15.6L-350.1,5
		z M-350,8l6.7,7h-6.7V8z M-343.3,34h-17.4c-0.7,0-1.3-0.5-1.3-1.1V8.1c0-0.6,0.6-1.1,1.3-1.1h8.7v8v2h10v15.9
		C-342,33.5-342.6,34-343.3,34z"/>
	<polygon class="st0" points="-348,29 -356,29 -356,26 -358,26 -358,31 -346,31 -346,26 -348,26 	"/>
	<polygon class="st0" points="-353,23.4 -353,27 -351,27 -351,23.4 -349.7,24.7 -348,23 -352,19 -356,23 -354.3,24.7 	"/>
</g>
<g>
	<path class="st0" d="M-318.1,14.5c-0.4-0.6-1.4-0.6-1.7,0l-4,7c-0.3,0.5-0.1,1.1,0.4,1.4s1.1,0.1,1.4-0.4l0.9-1.5
		c0.1,0,0.2,0.1,0.2,0.1h4c0.1,0,0.2,0,0.2-0.1l0.9,1.5c0.2,0.3,0.5,0.5,0.9,0.5c0.2,0,0.3,0,0.5-0.1c0.5-0.3,0.6-0.9,0.4-1.4
		L-318.1,14.5z M-320.1,19l1.1-2l1.1,2H-320.1z"/>
	<path class="st0" d="M-310.4,10.2c-0.1,0-0.1-0.1-0.2-0.1l0,0c-0.1-0.1-0.2-0.1-0.4-0.1l0,0h-13.3c-2,0-3.7,1.7-3.7,3.7V27l0,0
		c0,0.1,0,0.1,0,0.2s0,0.1,0.1,0.2l0,0l2,4c0.2,0.3,0.5,0.6,0.9,0.6h18c0.1,0,0.3,0,0.4-0.1l0,0l0,0c0.1,0,0.2-0.1,0.2-0.2
		c0,0,0-0.1,0.1-0.1c0.1-0.1,0.1-0.1,0.1-0.2v-0.1c0-0.1,0.1-0.2,0.1-0.4V14.2c0-0.3-0.1-0.6-0.4-0.8L-310.4,10.2z M-326,26V13.7
		c0-0.9,0.8-1.7,1.7-1.7h12.3v14H-326z M-324.4,30l-1-2h14.2l1.9,2H-324.4z M-308,28.5l-2-2.1V13.1l2,1.6V28.5z"/>
	<path class="st0" d="M-298.1,5h-1.8c-1.7,0-3.1,1.4-3.1,3.1v22.7c0,0.2,0.1,0.4,0.2,0.6l3,4.1c0.2,0.3,0.5,0.4,0.8,0.4
		s0.6-0.2,0.8-0.4l3-4.1c0.1-0.2,0.2-0.4,0.2-0.6V8.1C-295,6.4-296.4,5-298.1,5z M-297,30.5l-2,2.8l-2-2.8V30h4V30.5z M-297,28h-4
		V12h4V28z M-297,10h-4V8.1c0-0.6,0.5-1.1,1.1-1.1h1.8c0.6,0,1.1,0.5,1.1,1.1V10z"/>
</g>
<g>
	<path class="st0" d="M-259.5,6h-25c-1.9,0-3.5,1.6-3.5,3.5v22c0,1.9,1.6,3.5,3.5,3.5h25c1.9,0,3.5-1.6,3.5-3.5v-22
		C-256,7.6-257.6,6-259.5,6z M-286,13h19v7h-7c-0.2,0-0.5,0.1-0.7,0.3l-8.7,7.7h-2.6V13z M-258,31.5c0,0.8-0.7,1.5-1.5,1.5h-25
		c-0.8,0-1.5-0.7-1.5-1.5V30h28V31.5z M-258,28h-22.4l6.7-6h7.6c0.6,0,1-0.4,1-1v-8h7v15H-258z M-258,11h-28V9.5
		c0-0.8,0.7-1.5,1.5-1.5h25c0.8,0,1.5,0.7,1.5,1.5V11z"/>
	<path class="st0" d="M-279,18h5c0.6,0,1-0.4,1-1s-0.4-1-1-1h-5c-0.6,0-1,0.4-1,1S-279.6,18-279,18z"/>
</g>
<g>
	<path class="st0" d="M-233.8,5h-11.3c-1.6,0-2.8,1.3-2.8,2.8v25.3c0,1.6,1.3,2.8,2.8,2.8h11.3c1.6,0,2.8-1.3,2.8-2.8V7.8
		C-231,6.3-232.3,5-233.8,5z M-233,33.2c0,0.5-0.4,0.8-0.8,0.8h-11.3c-0.5,0-0.8-0.4-0.8-0.8V31h13L-233,33.2L-233,33.2z M-233,29
		h-13V12h13V29z M-233,10h-13V7.8c0-0.5,0.4-0.8,0.8-0.8h11.3c0.5,0,0.8,0.4,0.8,0.8L-233,10L-233,10z"/>
	<path class="st0" d="M-219.8,23h-0.2v-1c0-0.6-0.4-1-1-1h-3c-0.6,0-1,0.4-1,1v1h-0.2c-1.5,0-2.8,1.2-2.8,2.8v5.5
		c0,1.5,1.2,2.8,2.8,2.8h0.2v1c0,0.6,0.4,1,1,1h3c0.6,0,1-0.4,1-1v-1h0.2c1.5,0,2.8-1.2,2.8-2.8v-5.5C-217,24.2-218.2,23-219.8,23z
		 M-219,31.2c0,0.4-0.3,0.8-0.8,0.8h-5.5c-0.4,0-0.8-0.3-0.8-0.8v-5.5c0-0.4,0.3-0.8,0.8-0.8h5.5c0.4,0,0.8,0.3,0.8,0.8V31.2z"/>
	<path class="st0" d="M-243,17h5c0.6,0,1-0.4,1-1s-0.4-1-1-1h-5c-0.6,0-1,0.4-1,1S-243.6,17-243,17z"/>
	<path class="st0" d="M-243,20h3c0.6,0,1-0.4,1-1s-0.4-1-1-1h-3c-0.6,0-1,0.4-1,1S-243.6,20-243,20z"/>
</g>
<g>
	<path d="M-180.7,22.6l-9.5-4.6c-0.3-0.1-0.6-0.1-0.9,0c-0.3,0.1-0.5,0.4-0.5,0.7l-2.3,10.6c-0.2,0.7,0.1,1.4,0.6,1.9
		c0.6,0.5,1.3,0.6,2,0.2l2.8-1.4l2.1,4.2c0.2,0.4,0.5,0.6,0.9,0.6c0.1,0,0.3,0,0.4-0.1l3.6-1.8c0.2-0.1,0.4-0.3,0.5-0.6
		s0.1-0.5-0.1-0.8l-2.1-4.1l2.5-1.2c0.7-0.4,1.1-1.1,1.1-1.9C-179.6,23.5-180,22.8-180.7,22.6z M-184.9,26.1
		c-0.2,0.1-0.4,0.3-0.5,0.6c-0.1,0.3-0.1,0.5,0.1,0.8l2.1,4.1l-1.8,0.9l-2.1-4.2c-0.2-0.4-0.5-0.6-0.9-0.6c-0.1,0-0.3,0-0.4,0.1
		l-3.4,1.7l1.9-9.2l8.4,4.1L-184.9,26.1z"/>
	<path d="M-179,7h-6c-0.6,0-1,0.4-1,1v2h-13V8c0-0.6-0.4-1-1-1h-6c-0.6,0-1,0.4-1,1v6c0,0.6,0.4,1,1,1h2v10h-2c-0.6,0-1,0.4-1,1v6
		c0,0.6,0.4,1,1,1h6c0.6,0,1-0.4,1-1v-6c0-0.6-0.4-1-1-1h-2V15h2c0.6,0,1-0.4,1-1v-2h13v2c0,0.6,0.4,1,1,1h6c0.6,0,1-0.4,1-1V8
		C-178,7.4-178.4,7-179,7z M-201,27v4h-4v-4H-201z M-201,13h-4V9h4V13z M-180,13h-4V9h4V13z"/>
</g>
<g>
	<path d="M-164.2,13.9l12.4,6.3c0.1,0.1,0.3,0.1,0.5,0.1s0.3,0,0.5-0.1l12.4-6.2c0.3-0.2,0.5-0.5,0.5-0.9s-0.2-0.7-0.5-0.9
		l-12.4-6.3c-0.3-0.1-0.6-0.1-0.9,0l-12.4,6.2c-0.3,0.2-0.5,0.5-0.5,0.9C-164.8,13.4-164.5,13.7-164.2,13.9z M-151.4,7.9l10.2,5.1
		l-10.2,5.1l-10.1-5.1L-151.4,7.9z"/>
	<path d="M-159.2,17.4c-0.3-0.5-0.9-0.6-1.4-0.3l-3.8,2.5c-0.3,0.2-0.5,0.5-0.4,0.9c0,0.4,0.2,0.7,0.5,0.8l12.4,6.3
		c0.1,0.1,0.3,0.1,0.5,0.1s0.3,0,0.5-0.1l12.4-6.2c0.3-0.2,0.5-0.5,0.5-0.8c0-0.4-0.2-0.7-0.5-0.9l-4-2.5c-0.5-0.3-1.1-0.2-1.4,0.3
		c-0.3,0.5-0.2,1.1,0.3,1.4l2.5,1.6l-10.3,5.2l-10.4-5.3l2.3-1.5C-159,18.5-158.9,17.9-159.2,17.4z"/>
	<path d="M-138.5,27.7l-4-2.5c-0.5-0.3-1.1-0.2-1.4,0.3c-0.3,0.5-0.2,1.1,0.3,1.4l2.5,1.6l-10.3,5.2l-10.4-5.3l2.3-1.5
		c0.5-0.3,0.6-0.9,0.3-1.4s-0.9-0.6-1.4-0.3l-3.8,2.5c-0.3,0.2-0.5,0.5-0.4,0.9c0,0.4,0.2,0.7,0.5,0.8l12.4,6.3
		c0.1,0.1,0.3,0.1,0.5,0.1s0.3,0,0.5-0.1l12.4-6.2c0.3-0.2,0.5-0.5,0.5-0.8C-138,28.2-138.2,27.8-138.5,27.7z"/>
	<path d="M-153.9,11.5l-1.5,0.7c-0.5,0.2-0.7,0.8-0.5,1.3c0.2,0.4,0.5,0.6,0.9,0.6c0.1,0,0.3,0,0.4-0.1l1.5-0.7
		c0.5-0.2,0.7-0.8,0.5-1.3S-153.4,11.3-153.9,11.5z"/>
	<path d="M-148.5,13.8c0.5-0.3,0.6-0.9,0.3-1.4s-0.9-0.6-1.4-0.3l-2.5,1.6c-0.5,0.3-0.6,0.9-0.3,1.4c0.2,0.3,0.5,0.5,0.8,0.5
		c0.2,0,0.4,0,0.5-0.2L-148.5,13.8z"/>
</g>
<path d="M-102,24c-0.1,0-0.1,0-0.2,0l-1.7-6.6c1.1-0.7,1.9-2,1.9-3.4c0-2.2-1.8-4-4-4c-1.4,0-2.7,0.7-3.4,1.9l-6.4-1.8
	c-0.1,0-0.2,0-0.3,0l0,0c0-2.2-1.8-4-4-4s-4,1.8-4,4c0,1.9,1.3,3.4,3,3.9l-3,11.9c0,0.1,0,0.2,0,0.2l0,0c-2.2,0-4,1.8-4,4s1.8,4,4,4
	s4-1.8,4-4c0-0.2,0-0.4-0.1-0.5l11.6-12.6c0.7,0.6,1.6,1,2.6,1c0.1,0,0.1,0,0.2,0l1.7,6.6c-1.1,0.7-1.9,2-1.9,3.4c0,2.2,1.8,4,4,4
	s4-1.8,4-4S-99.8,24-102,24z M-122,10c0-1.1,0.9-2,2-2s2,0.9,2,2s-0.9,2-2,2S-122,11.1-122,10z M-124,32c-1.1,0-2-0.9-2-2s0.9-2,2-2
	s2,0.9,2,2S-122.9,32-124,32z M-122.1,26.5c0-0.1,0.1-0.2,0.1-0.2l3-12c0-0.1,0-0.3,0-0.4c1.1-0.3,2-1,2.5-2c0.1,0,0.1,0.1,0.2,0.1
	l6.3,1.8c0,0.1,0,0.2,0,0.2c0,0.5,0.1,0.9,0.2,1.3L-121,27.4C-121.3,27.1-121.7,26.7-122.1,26.5z M-108,14c0-1.1,0.9-2,2-2
	s2,0.9,2,2s-0.9,2-2,2S-108,15.1-108,14z M-102,30c-1.1,0-2-0.9-2-2s0.9-2,2-2s2,0.9,2,2S-100.9,30-102,30z"/>
</svg>
